<svg xmlns="http://www.w3.org/2000/svg" viewBox="0 0 24 24" fill="currentColor">
  <path d="M12 .5a12 12 0 0 0-3.79 23.39c.6.11.82-.26.82-.58v-2.24c-3.34.73-4.04-1.41-4.04-1.41-.55-1.37-1.34-1.74-1.34-1.74-1.09-.75.08-.73.08-.73 1.21.08 1.85 1.24 1.85 1.24 1.07 1.84 2.81 1.31 3.5 1 .1-.78.42-1.31.76-1.61-2.67-.3-5.47-1.34-5.47-5.95 0-1.31.47-2.38 1.24-3.22-.13-.3-.54-1.52.12-3.18 0 0 1.01-.32 3.31 1.23a11.4 11.4 0 0 1 6.02 0c2.29-1.55 3.3-1.23 3.3-1.23.67 1.66.26 2.88.13 3.18.77.84 1.24 1.91 1.24 3.22 0 4.62-2.81 5.65-5.49 5.94.44.38.82 1.11.82 2.23v3.3c0 .32.21.7.83.58A12 12 0 0 0 12 .5Z"/>
</svg>
