<svg xmlns="http://www.w3.org/2000/svg" viewBox="0 0 24 24" fill="currentColor">
  <path d="M16.13 3.21a1.5 1.5 0 0 1 2.12 2.12l-8.78 8.78 2.62 2.62a1.5 1.5 0 0 1-2.12 2.12l-3.68-3.68a1.5 1.5 0 0 1 0-2.12l9.84-9.84Z"/>
  <path d="M9.47 5.26a1.5 1.5 0 0 1 2.12 2.12l-5.3 5.3a2.5 2.5 0 0 0 0 3.54l2.83 2.83a2.5 2.5 0 0 0 3.54 0l1.4-1.4a1.5 1.5 0 1 1 2.12 2.12l-1.4 1.4a5.5 5.5 0 0 1-7.78 0l-2.83-2.83a5.5 5.5 0 0 1 0-7.78l5.3-5.3Z"/>
  <path d="M11.5 13.5A1.5 1.5 0 0 1 13 12h5.5a1.5 1.5 0 0 1 0 3H13a1.5 1.5 0 0 1-1.5-1.5Z"/>
</svg>
