<svg xmlns="http://www.w3.org/2000/svg" viewBox="0 0 24 24" fill="currentColor">
  <path d="M15.9 10.7c-.2-1.6-1.2-2.8-2.9-3.2-1.7-.4-3.6-.2-5 .8-1.2.9-2 2.3-2.1 3.9-.1 1.7.5 3.3 1.8 4.4 1.1 1 2.6 1.5 4.1 1.5 1.6 0 3.2-.6 4.3-1.8.7-.8 1.1-1.7 1.2-2.7.1-.9 0-1.9-.3-2.8.8.3 1.4.9 1.6 1.7.3 1.2 0 2.4-.8 3.3-1.3 1.6-3.5 2.4-5.8 2.3-2.2-.1-4.2-.9-5.6-2.4A7.12 7.12 0 0 1 4 10.9c.2-2.3 1.3-4.3 3.1-5.7 2-1.4 4.6-1.9 7-1.3 2.5.6 4.2 2.5 4.6 5 .1.4.1.8.1 1.2h-2.9Zm-1.6 2c-.4-.2-.8-.4-1.2-.5-.9-.3-1.9-.4-2.8-.2-.6.1-1.1.4-1.5.9-.3.4-.4.9-.3 1.4.1.6.5 1.1 1.1 1.4 1 .4 2.2.2 3-.5.7-.6 1.3-1.5 1.7-2.5Zm1.7 4.8c-1.4 1.4-3.5 2.2-5.5 2.1-1.9-.1-3.7-.8-5.1-2.1A7.23 7.23 0 0 1 3 12c0-2.7 1.4-5.2 3.7-6.6 2.1-1.2 4.8-1.4 7.1-.5 2.2.8 3.8 2.8 4.2 5.1.2 1.1.2 2.2-.1 3.2-.2.8-.5 1.6-.9 2.3 1.1-.4 2-.9 2.6-1.7.8-1 .9-2.4.4-3.7-.5-1.3-1.7-2.3-3.1-2.8v2.3h-1.7V8.2c0-.2 0-.4-.1-.6-.3-1.7-1.4-3.1-3-3.7-1.8-.7-3.9-.6-5.5.4C4.8 5.4 3.8 7.1 3.7 9c-.2 2.1.6 4.1 2.1 5.5 1.4 1.3 3.3 2 5.2 1.9 1.7 0 3.3-.7 4.5-1.8l.5 1.9Z"/>
</svg>
